# xmcd CD database file
#
# Track frame offsets:
#	182
#	7725
#	15507
#	23045
#	29555
#	36295
#	43327
#	51142
#	57522
#	64430
#	71627
#	79420
#	86657
#	92747
#	99560
#	107215
#	114905
#	122277
#	129380
#	137580
#	144240
#	150980
#	158262
#	165227
#
# Disc length: 2313 seconds
#
# Revision: 3
# Processed by: cddbd v1.5.1PL0 Copyright (c) Steve Scherf et al.
# Submitted via: Feurio! 1.67 - http://www.feurio.com
#
DISCID=2d090718
DTITLE=Bill Weston and his happy rangers - Trucker und Country-Party
DYEAR=1900
DGENRE=Country
TTITLE0=Good hearted woman
TTITLE1=Hello, Mary Lou
TTITLE2=Country Roads
TTITLE3=Truck driving man
TTITLE4=On the road again
TTITLE5=500 miles away from home
TTITLE6=Wandering star
TTITLE7=Six days on the road
TTITLE8=Focky mountain breakdown
TTITLE9=She'll be coming round the mountain
TTITLE10=Hilly billy country lilly
TTITLE11=Jambalaya
TTITLE12=Lass dir nie den Tag verderben
TTITLE13=Help me make it through the night
TTITLE14=On top of old smokey
TTITLE15=Lieber langsam mit Gefühl
TTITLE16=Long hard ride
TTITLE17=Ruby
TTITLE18=Michael row the boat ashore
TTITLE19=Mein Stiefel kommt in den Himmel
TTITLE20=Ring of Fire
TTITLE21=Oh my darling Clementine
TTITLE22=Rolling my sweat baby's arms
TTITLE23=Orange blossom spezial
EXTD=ID3G: 2
EXTT0=
EXTT1=
EXTT2=
EXTT3=
EXTT4=
EXTT5=
EXTT6=
EXTT7=
EXTT8=
EXTT9=
EXTT10=
EXTT11=
EXTT12=
EXTT13=
EXTT14=
EXTT15=
EXTT16=
EXTT17=
EXTT18=
EXTT19=
EXTT20=
EXTT21=
EXTT22=
EXTT23=
PLAYORDER=
